<svg t="1661513848506" class="icon" viewBox="0 0 1024 1024" version="1.1" xmlns="http://www.w3.org/2000/svg" p-id="2203" width="128" height="128"><path d="M625.455 112c17.673 0 32 14.327 32 32v226.91c0 17.672-14.327 32-32 32L544 402.908v95.272h222.545c17.674 0 32 14.328 32 32v90.909H880c17.673 0 32 14.328 32 32V880c0 17.673-14.327 32-32 32H653.09c-17.672 0-32-14.327-32-32V653.09c0-17.672 14.328-32 32-32h81.455v-58.909H289.454v58.909h81.455c17.673 0 32 14.328 32 32V880c0 17.673-14.327 32-32 32H144c-17.673 0-32-14.327-32-32V653.09c0-17.672 14.327-32 32-32h81.454v-90.908c0-17.673 14.327-32 32-32L480 498.18v-95.272h-81.455c-17.673 0-32-14.327-32-32V144c0-17.673 14.327-32 32-32h226.91zM338.909 685.09H176V848h162.909V685.09z m509.09 0H685.09V848h162.909V685.09zM593.454 175.999H430.545v162.91h162.909v-162.91z" fill="#000000" fill-opacity=".65" p-id="2204"></path></svg>
