<svg t="1661513911842" class="icon" viewBox="0 0 1024 1024" version="1.1" xmlns="http://www.w3.org/2000/svg" p-id="3187" width="128" height="128"><path d="M448 448a85.333333 85.333333 0 1 1 0-170.666667 85.333333 85.333333 0 0 1 0 170.666667z m0 64a149.333333 149.333333 0 1 0 0-298.666667 149.333333 149.333333 0 0 0 0 298.666667zM610.688 252.074667a32 32 0 0 1 42.112-16.512 138.666667 138.666667 0 0 1 0 254.208 32 32 0 1 1-25.6-58.624 74.666667 74.666667 0 0 0 0-136.96 32 32 0 0 1-16.512-42.112zM448 608a224 224 0 0 0-224 224 32 32 0 0 1-64 0 288 288 0 0 1 576 0 32 32 0 0 1-64 0c0-123.733333-100.266667-224-224-224z" fill="#333333" p-id="3188"></path><path d="M664.618667 569.770667a32 32 0 0 1 42.666666-15.189334c100.565333 47.786667 158.805333 163.413333 134.741334 283.690667a32 32 0 0 1-62.72-12.544c18.602667-93.013333-26.794667-178.773333-99.498667-213.333333a32 32 0 0 1-15.189333-42.624z" fill="#333333" p-id="3189"></path></svg>
