<svg t="1660918198222" class="icon" viewBox="0 0 1024 1024" version="1.1"
  xmlns="http://www.w3.org/2000/svg" p-id="12973" width="128" height="128">
  <path d="M512 0C230.4 0 0 230.4 0 512s230.4 512 512 512 512-230.4 512-512-230.4-512-512-512z m0 960c-38.4 0-89.6-96-115.2-262.4 38.4 6.4 76.8 6.4 115.2 6.4s76.8 0 115.2-6.4C601.6 864 550.4 960 512 960z m0-320c-44.8 0-83.2 0-121.6-6.4C384 595.2 384 556.8 384 512s0-83.2 6.4-121.6C428.8 384 467.2 384 512 384s83.2 0 121.6 6.4c6.4 38.4 6.4 76.8 6.4 121.6s0 83.2-6.4 121.6c-38.4 6.4-76.8 6.4-121.6 6.4z m-185.6-12.8C160 601.6 64 550.4 64 512s96-89.6 262.4-115.2C320 435.2 320 473.6 320 512s0 76.8 6.4 115.2zM512 64c38.4 0 89.6 96 115.2 262.4C588.8 320 550.4 320 512 320s-76.8 0-115.2 6.4C422.4 160 473.6 64 512 64z m185.6 332.8C864 422.4 960 473.6 960 512s-96 89.6-262.4 115.2c6.4-38.4 6.4-76.8 6.4-115.2s0-76.8-6.4-115.2z m249.6 6.4c-64-38.4-153.6-64-256-76.8-12.8-102.4-38.4-192-76.8-256 166.4 44.8 294.4 172.8 332.8 332.8zM403.2 76.8c-38.4 64-64 153.6-76.8 256-102.4 12.8-192 38.4-256 76.8 44.8-166.4 172.8-294.4 332.8-332.8zM76.8 620.8c64 38.4 153.6 64 256 76.8 12.8 102.4 38.4 192 76.8 256-166.4-44.8-294.4-172.8-332.8-332.8z m544 326.4c38.4-64 64-153.6 76.8-256 102.4-12.8 192-38.4 256-76.8-44.8 166.4-172.8 294.4-332.8 332.8z" p-id="12974" fill="#1296db"></path>
</svg>
